<svg id="Layer_1" data-name="Layer 1" xmlns="http://www.w3.org/2000/svg" viewBox="0 0 350.72 390.77"><defs><style>.cls-1{fill:#e6e7e7;}.cls-2{fill:#27a1b5;}.cls-3{fill:#b5b5b5;}</style></defs><title>testnotsmoke</title><path class="cls-1" d="M195.6,240.16a1197.05,1197.05,0,0,0,138.6,44.93A1167.16,1167.16,0,0,0,464.28,311a1736.69,1736.69,0,0,1-43.85,195.32c-12.62,44.33-26.35,85.81-40.52,124.34a1166.55,1166.55,0,0,1-129-30.24A1191.3,1191.3,0,0,1,113.56,550.7a585.72,585.72,0,0,0,82.08-310.8Z" transform="translate(-113.56 -239.9)"/><path class="cls-2" d="M255,332a39.38,39.38,0,0,0,4.63,28.43,19.44,19.44,0,0,0,25.81,9.47l.11-.05a19.29,19.29,0,0,0,3.06-1.82,30.75,30.75,0,0,0,12.71-12.7,195.44,195.44,0,0,0-46.45-23.16Z" transform="translate(-113.56 -239.9)"/><path class="cls-2" d="M372.39,363a38.62,38.62,0,0,1-18.06,22.46,22.34,22.34,0,0,1-15.73,3.07,23,23,0,0,1-13.26-10.84,31.82,31.82,0,0,1-4.71-17.28A191.94,191.94,0,0,1,372.39,363Z" transform="translate(-113.56 -239.9)"/><rect class="cls-3" x="259.91" y="356.27" width="9.55" height="140.5" transform="translate(-328.8 333.73) rotate(-75.22)"/><rect class="cls-3" x="284.72" y="355.25" width="9.55" height="204.22" transform="matrix(0.26, -0.97, 0.97, 0.26, -340.15, 380.7)"/><rect class="cls-3" x="272.61" y="382.74" width="9.55" height="191.48" transform="translate(-369.58 384.71) rotate(-75.22)"/><rect class="cls-3" x="253.84" y="427.14" width="9.59" height="141.09" transform="translate(-402.6 378.75) rotate(-75)"/><rect class="cls-3" x="267.34" y="421.23" width="9.55" height="204.22" transform="translate(-416.89 413.04) rotate(-75.22)"/><rect class="cls-3" x="255.19" y="448.65" width="9.55" height="191.48" transform="translate(-446.29 416.97) rotate(-75.22)"/></svg>