<svg xmlns="http://www.w3.org/2000/svg" viewBox="0 0 212.91 353.5"><defs><style>.cls-1{fill:#fbd1a0;}.cls-2{fill:#122181;}.cls-3{fill:#8f1000;}.cls-4{fill:#92ddf4;}.cls-5{fill:#ebf3f3;}.cls-6{fill:#0079a7;}.cls-7{fill:#0979a6;}.cls-8{fill:#b24128;}.cls-9{fill:#c87154;}.cls-10{fill:#ffc443;}.cls-11{fill:#d69f83;}.cls-12{fill:#f69039;}.cls-13{fill:#e2773c;}.cls-14{fill:#5b4636;}.cls-15{fill:#fff;}.cls-16{fill:#34eab6;}.cls-17{fill:#ffe397;}.cls-18{fill:#ffeaa9;}.cls-19{fill:#e18a4d;}</style></defs><title>usertest</title><g id="Layer_1" data-name="Layer 1"><rect class="cls-1" x="3.65" y="257.36" width="38.93" height="47.33"/><rect class="cls-1" x="173.98" y="257.36" width="38.93" height="47.33"/><rect class="cls-2" x="43.8" y="300.25" width="128.96" height="53.25"/><rect class="cls-3" x="43.8" y="335.75" width="128.96" height="17.75"/><rect class="cls-4" x="43.8" y="255.88" width="128.96" height="44.37"/><rect class="cls-5" x="43.8" y="273.63" width="107.06" height="26.62"/><rect class="cls-6" x="46.23" y="300.25" width="46.23" height="35.5"/><rect class="cls-7" x="111.93" y="300.25" width="46.23" height="35.5"/><rect class="cls-8" x="46.23" y="335.75" width="46.23" height="10.35"/><rect class="cls-8" x="111.93" y="335.75" width="46.23" height="10.35"/><rect class="cls-1" x="9.73" y="54.73" width="170.33" height="201.15"/><polygon class="cls-9" points="178.85 254.4 198.31 251.44 200.75 65.08 178.85 56.2 178.85 254.4"/><rect class="cls-10" x="82.73" y="54.73" width="97.33" height="71"/><rect class="cls-11" x="38.93" y="134.6" width="29.2" height="8.87"/><rect class="cls-11" x="119.23" y="134.6" width="29.2" height="8.87"/><polygon class="cls-12" points="180.06 110.64 200.75 107.97 200.75 65.08 178.85 53.25 180.06 110.64"/><polygon class="cls-13" points="198.31 215.95 212.91 214.47 212.91 71 200.75 65.08 198.31 215.95"/><rect class="cls-14" x="37.72" y="153.82" width="29.2" height="8.87"/><rect class="cls-14" x="25.55" y="159.74" width="14.6" height="8.87"/><rect class="cls-14" x="32.85" y="168.62" width="7.3" height="8.87"/><rect class="cls-15" x="38.93" y="161.22" width="31.63" height="26.62"/><rect class="cls-16" x="53.53" y="161.22" width="17.03" height="26.62"/><rect class="cls-14" x="999.87" y="515.87" width="29.2" height="8.87" transform="translate(1150.86 678.62) rotate(-180)"/><rect class="cls-14" x="1026.64" y="521.79" width="14.6" height="8.87" transform="translate(1189.79 690.45) rotate(-180)"/><rect class="cls-14" x="1026.64" y="530.66" width="7.3" height="8.87" transform="translate(1182.49 708.2) rotate(-180)"/><rect class="cls-15" x="996.22" y="523.27" width="31.63" height="26.62" transform="translate(1145.99 711.16) rotate(-180)"/><rect class="cls-16" x="996.22" y="523.27" width="17.03" height="26.62" transform="translate(1131.39 711.16) rotate(-180)"/><rect class="cls-15" x="75.43" y="214.47" width="38.93" height="8.87"/><rect class="cls-17" y="54.73" width="180.06" height="20.71"/><polyline class="cls-18" points="96.11 53.25 96.11 35.5 105.85 35.5 105.85 17.75 169.11 17.75 169.11 54.73 96.11 54.73"/><path class="cls-19" d="M1026.52,416.73V400.46H1035V379.75h12.17v38.46S1026.52,414.46,1026.52,416.73Z" transform="translate(-878.09 -362)"/><polygon class="cls-18" points="40.15 44.37 40.15 26.62 30.42 26.62 30.42 17.75 15.82 17.75 15.82 0 30.42 0 30.42 11.83 37.72 11.83 37.72 17.75 45.02 17.75 45.02 56.2 40.15 56.2 40.15 44.37"/></g></svg>